# xmcd
#
# Track frame offsets:
#	150
#	16002
#	30594
#	46743
#	64938
#	77995
#	96915
#	112303
#	141004
#	152524
#	179262
#	195880
#
# Disc length: 2799 seconds
#
# Revision: 0
# Processed by: cddbd v1.5.2PL0 Copyright (c) Steve Scherf et al.
# Submitted via: dBpowerAMP V4.0
#
DISCID=920aed0c
DTITLE=Peter Cooper - Cautionary Tales
DYEAR=2007
DGENRE=Country
TTITLE0=Boy Genius
TTITLE1=All The Way To Heaven
TTITLE2=Wine
TTITLE3=Couple Of Lies
TTITLE4=Take Care
TTITLE5=Mission Door
TTITLE6=They Hate me
TTITLE7=715 (For Hank Aaron)
TTITLE8=Sheboygan
TTITLE9=One By One
TTITLE10=Andalusia
TTITLE11=Thin Wild Mercury
EXTD=
EXTT0=
EXTT1=
EXTT2=
EXTT3=
EXTT4=
EXTT5=
EXTT6=
EXTT7=
EXTT8=
EXTT9=
EXTT10=
EXTT11=
PLAYORDER=
